<svg style="position:relative" version="1.1" width="210" height="135" xmlns="http://www.w3.org/2000/svg" xmlns:xlink="http://www.w3.org/1999/xlink" xmlns:a="http://ns.adobe.com/AdobeSVGViewerExtensions/3.0/" ng-if="$root.removeAll != true" class="ng-scope">
                                <g ng-preview="" ng-model="config" ng-shapes="indexedShapes" ng-etape="etape" class="ng-presentation ng-pristine ng-untouched ng-valid ng-isolate-scope ng-not-empty" transform="translate(0 8.125)">
                                    <g class="logo-preview ng-scope" transform="scale(0.39622641509433965)">
                                        <g class="logo-ctn"><g class="logo" id="item-6spgcox5xcccaxh5e40i2zaino4agvnv" transform="translate(165.5250015258789 0) scale(1.8943741496860824)"><path d="M102.843 37.328a7.296 7.296 0 00-5.188-2.161 7.363 7.363 0 00-5.203 2.161 7.231 7.231 0 00-1.973 3.597H6.969a41.42 41.42 0 01.415-3.458c.185-1.107.419-2.195.701-3.268H1.011a42.906 42.906 0 00-.583 3.268 45.78 45.78 0 00-.335 3.458C.041 41.784 0 42.645 0 43.517c0 .203.012.405.016.607H90.48a7.378 7.378 0 001.973 3.597 7.344 7.344 0 005.203 2.144 7.281 7.281 0 005.188-2.144 7.36 7.36 0 002.161-5.206 7.292 7.292 0 00-2.162-5.187zm-2.265 8.127a4.126 4.126 0 01-2.923 1.21 4.165 4.165 0 01-2.938-1.21 4.096 4.096 0 01-1.211-2.94c0-1.14.45-2.177 1.211-2.938a4.171 4.171 0 012.938-1.211 4.13 4.13 0 012.923 1.211 4.143 4.143 0 011.228 2.938 4.11 4.11 0 01-1.228 2.94zM77.911 67.707a7.605 7.605 0 01-5.188-2.076c-6.697 8.83-17.27 14.559-29.207 14.559-3.469 0-6.813-.514-9.994-1.414a35.918 35.918 0 01-3.629-1.263l6.986-6.984h10.103a4.85 4.85 0 001.276 2.306 4.864 4.864 0 003.444 1.427 4.875 4.875 0 003.447-8.318 4.868 4.868 0 00-3.447-1.427 4.86 4.86 0 00-3.444 1.427 4.851 4.851 0 00-1.276 2.308H35.937l-8.278 8.276-5.105 5.105c.699.385 1.407.75 2.126 1.097a43.712 43.712 0 003.408 1.481 43.417 43.417 0 0015.429 2.823c15.207 0 28.583-7.805 36.365-19.621-.641.173-1.299.294-1.971.294zm-28.042-.153a2.571 2.571 0 011.833-.758 2.59 2.59 0 012.595 2.594 2.588 2.588 0 01-.76 1.833 2.579 2.579 0 01-1.835.76 2.584 2.584 0 01-1.833-.76 2.589 2.589 0 010-3.669z" fill="#f48120"></path><path d="M58.873 26.143H73.95a4.087 4.087 0 001.021 1.747 4.171 4.171 0 002.94 1.209 4.17 4.17 0 002.938-1.209 4.203 4.203 0 001.211-2.941 4.139 4.139 0 00-1.211-2.938 4.11 4.11 0 00-2.938-1.229 4.112 4.112 0 00-2.94 1.229 3.925 3.925 0 00-1.021 1.729H57.87l-4.599 4.599H10.192a36.163 36.163 0 011.781-3.459 36.788 36.788 0 0112.506-12.663l-4.983-4.983A43.689 43.689 0 004.188 24.879a43.411 43.411 0 00-1.44 3.459 42.128 42.128 0 00-.813 2.403h52.34l4.598-4.598zm17.792-2.439c.328-.329.762-.519 1.246-.519s.916.189 1.244.519c.311.312.502.743.502 1.244 0 .484-.191.917-.502 1.245a1.794 1.794 0 01-2.49 0 1.74 1.74 0 01-.519-1.245c0-.501.191-.932.519-1.244zm18.276 32.159c-.97 0-1.886.295-2.664.761l-8.229-8.213h-61.95l-2.386 2.387-9 9.004c-.241-.487-.501-.964-.722-1.463-.282-.632-.526-1.282-.771-1.933a38.542 38.542 0 01-.562-1.628l18.178-18.176h57.212l8.229-8.229a5.192 5.192 0 002.664.761 5.086 5.086 0 003.632-1.504 5.092 5.092 0 001.504-3.632 5.146 5.146 0 00-1.504-3.631 5.157 5.157 0 00-3.632-1.504 5.141 5.141 0 00-3.614 1.504 5.14 5.14 0 00-1.504 3.631c0 .985.277 1.902.761 2.681L83.062 34.2h-57.23l-2.404 2.403L7.903 52.13a35.706 35.706 0 01-.758-4.133c-.018-.14-.047-.275-.063-.417H.196c.2 2.153.556 4.258 1.058 6.309a43.52 43.52 0 001.117 3.771c.287.832.631 1.634.965 2.442.214.519.396 1.053.63 1.561.282.613.577 1.218.887 1.813.247.478.526.933.791 1.399.426.756.869 1.499 1.339 2.225.409.634.815 1.271 1.257 1.882.245.338.492.674.746 1.004.454.59.955 1.139 1.437 1.704a42.782 42.782 0 001.598 1.81 43.697 43.697 0 002.464 2.425 43.837 43.837 0 005.013 3.876l4.982-4.981a36.763 36.763 0 01-5.125-3.764 36.643 36.643 0 01-2.469-2.422l11.939-11.938h24.448l4.599 4.599h16.08a3.917 3.917 0 001.021 1.729 4.113 4.113 0 002.94 1.228c1.14 0 2.195-.467 2.938-1.228a4.136 4.136 0 001.211-2.939 4.196 4.196 0 00-1.211-2.938 4.169 4.169 0 00-2.938-1.21 4.17 4.17 0 00-2.94 1.21 4.094 4.094 0 00-1.021 1.745H58.873l-4.599-4.599H27.821L15.308 66.805c-.474-.575-.973-1.128-1.413-1.73-.246-.336-.514-.655-.749-1-.428-.631-.807-1.293-1.191-1.951l11.318-11.325h59.79l7.521 7.537A5.005 5.005 0 0089.823 61a5.12 5.12 0 001.504 3.632 5.145 5.145 0 003.614 1.504 5.161 5.161 0 003.632-1.504A5.123 5.123 0 00100.077 61a5.12 5.12 0 00-1.504-3.632 5.087 5.087 0 00-3.632-1.505zm-1.919-33.784a2.678 2.678 0 011.919-.813c.761 0 1.435.313 1.936.813.503.483.796 1.158.796 1.919s-.293 1.435-.796 1.936a2.698 2.698 0 01-1.936.796 2.659 2.659 0 01-1.919-.796c-.502-.501-.813-1.175-.813-1.936s.312-1.435.813-1.919zM76.665 58.837a1.794 1.794 0 012.49 0c.311.329.502.761.502 1.245 0 .502-.191.935-.502 1.245-.328.328-.76.519-1.244.519s-.918-.19-1.246-.519a1.681 1.681 0 01-.519-1.245c0-.484.191-.916.519-1.245zm20.212 4.098a2.77 2.77 0 01-1.936.796 2.729 2.729 0 01-1.919-.796 2.713 2.713 0 010-3.873 2.663 2.663 0 011.919-.796c.761 0 1.435.295 1.936.796.503.501.796 1.176.796 1.937s-.293 1.435-.796 1.936z" fill="#333333"></path><path d="M43.519 0a43.476 43.476 0 00-15.436 2.824c-1.157.445-2.29.941-3.397 1.477a52.92 52.92 0 00-2.138 1.094l5.112 5.112-.001.001 3.725 3.724 4.551 4.552h11.046a4.796 4.796 0 001.029 2.019c.081.095.155.194.244.283l.002.001.002.003c.146.146.312.261.471.385a4.802 4.802 0 002.973 1.042 4.78 4.78 0 00.907-.086 4.791 4.791 0 001.564-.606c.347-.204.679-.438.976-.734.547-.547.919-1.2 1.151-1.891a4.843 4.843 0 00.276-1.549c0-.312-.03-.624-.09-.933a4.885 4.885 0 00-.957-2.053c-.123-.157-.234-.32-.379-.464-.01-.011-.023-.018-.034-.028a4.858 4.858 0 00-3.415-1.4c-.694 0-1.385.165-2.031.462a4.8 4.8 0 00-1.417.967 4.6 4.6 0 00-.73.965 4.86 4.86 0 00-.543 1.338h-10.1L29.894 9.52l-.002-.001a39.702 39.702 0 013.626-1.261 36.535 36.535 0 0110.001-1.412c11.428 0 21.634 5.23 28.368 13.438.203-.254.42-.509.649-.726a7.57 7.57 0 015.37-2.239c.14 0 .267.038.394.038C70.358 6.821 57.735 0 43.519 0zm8.184 15.055c.375 0 .747.087 1.095.247.266.124.52.287.741.509.508.51.758 1.167.76 1.834a2.585 2.585 0 01-1.564 2.376c-.02.008-.037.021-.056.028-.022.01-.046.013-.069.021a2.64 2.64 0 01-.907.165 2.66 2.66 0 01-.859-.151 2.57 2.57 0 01-.975-.604 2.59 2.59 0 010-3.668c.29-.289.631-.485.992-.609.273-.094.556-.148.842-.148z" fill="#f48120"></path></g></g><g class="main" transform="translate(0 189.95001220703125)"><g class="formes"></g><g class="inline-shape"><g class="contents"><g id="texts"><g class="firstLine" transform="translate(194.875 0) scale(1)"></g><g class="sndLine" transform="translate(125.125 73.01666259765625)  scale(1)"></g><g class="thirdLine" transform="translate(265 111.17418744487148)  scale(1)"></g><g class="initial"></g></g></g></g></g>
                                    </g>
                                </g> 
                        </svg>